  <svg
    width="146"
    height="146"
    viewBox="0 0 146 146"
    fill="none"
    xmlns="http://www.w3.org/2000/svg"
>
    <rect
        x="0.xw5"
        y="0.5"
        width="145"
        height="145"
        rx="7.5"
        stroke="#ACACAC"
        stroke-dasharray="8 8"
    />
    <path
        d="M67.5 62C65.9832 62 64.75 63.2332 64.75 64.75V81.25C64.75 82.7668 65.9832 84 67.5 84H78.5C80.0168 84 81.25 82.7668 81.25 81.25V68.875H75.75C74.9895 68.875 74.375 68.2605 74.375 67.5V62H67.5ZM75.75 62V67.5H81.25L75.75 62ZM67.5 73C67.5 72.6353 67.6449 72.2856 67.9027 72.0277C68.1606 71.7699 68.5103 71.625 68.875 71.625C69.2397 71.625 69.5894 71.7699 69.8473 72.0277C70.1051 72.2856 70.25 72.6353 70.25 73C70.25 73.3647 70.1051 73.7144 69.8473 73.9723C69.5894 74.2301 69.2397 74.375 68.875 74.375C68.5103 74.375 68.1606 74.2301 67.9027 73.9723C67.6449 73.7144 67.5 73.3647 67.5 73ZM74.0312 74.375C74.259 74.375 74.4695 74.4867 74.5984 74.6715L78.3797 80.1715C78.5258 80.382 78.5387 80.657 78.4227 80.8805C78.3066 81.1039 78.0703 81.25 77.8125 81.25H68.1875C67.9383 81.25 67.7105 81.1168 67.5902 80.902C67.4699 80.6871 67.4699 80.4207 67.5988 80.2102L69.6613 76.7727C69.7859 76.5664 70.0094 76.4375 70.25 76.4375C70.4906 76.4375 70.7141 76.5621 70.8387 76.7727L71.3887 77.6922L73.4641 74.6758C73.593 74.491 73.8035 74.3793 74.0312 74.3793V74.375Z"
        fill="#ACACAC"
    />
</svg>